<?xml version="1.0" encoding="UTF-8"?>
<!DOCTYPE svg PUBLIC "-//W3C//DTD SVG 1.1//EN" "http://www.w3.org/Graphics/SVG/1.1/DTD/svg11.dtd">
<!-- Creator: CorelDRAW 2020 (64 Bit) -->
<svg xmlns="http://www.w3.org/2000/svg" xml:space="preserve" width="15.95mm" height="21.6041mm" version="1.1" style="shape-rendering:geometricPrecision; text-rendering:geometricPrecision; image-rendering:optimizeQuality; fill-rule:evenodd; clip-rule:evenodd"
viewBox="0 0 21.78 29.49"
 xmlns:xlink="http://www.w3.org/1999/xlink"
 xmlns:xodm="http://www.corel.com/coreldraw/odm/2003">
 <defs>
  <style type="text/css">
   <![CDATA[
    .fil0 {fill:#373435;fill-rule:nonzero}
   ]]>
  </style>
 </defs>
 <g id="Camada_x0020_1">
  <metadata id="CorelCorpID_0Corel-Layer"/>
  <path class="fil0" d="M18.93 15.41l-16.08 0 2.56 12.72 10.95 0 2.56 -12.72zm-9.04 -3.93l2.38 -0.03 1.83 -5.29c0.04,-0.12 0.12,-0.22 0.23,-0.28l5.08 -2.93 -1.13 -1.76 -5.97 3.45 -2.41 6.84zm2.75 0.98l-3.43 0.04c-0.07,0.01 -0.14,-0 -0.21,-0.03 -0.27,-0.09 -0.41,-0.39 -0.31,-0.65l0.56 -1.59 -6.81 0c-0.3,0 -0.56,0.12 -0.75,0.31 -0.19,0.2 -0.31,0.48 -0.31,0.78l0 1.69c0,0.28 0.11,0.53 0.3,0.72 0.18,0.18 0.44,0.3 0.72,0.3l8.51 0 8.51 0c0.28,0 0.53,-0.11 0.72,-0.3 0.18,-0.18 0.3,-0.44 0.3,-0.72l0 -1.69c0,-0.3 -0.12,-0.58 -0.32,-0.78 -0.2,-0.2 -0.47,-0.32 -0.78,-0.32l-5.55 0 -0.64 1.86c-0.06,0.21 -0.25,0.36 -0.48,0.36zm-2.92 -3.59l1.67 -4.75c0.04,-0.11 0.12,-0.21 0.23,-0.27l6.55 -3.78 0 0c0.23,-0.14 0.54,-0.06 0.68,0.16l1.7 2.64c0.14,0.24 0.06,0.56 -0.19,0.7l-5.38 3.1 -0.76 2.2 5.08 0c0.68,0 1.29,0.28 1.74,0.72 0.45,0.45 0.72,1.06 0.72,1.74l0 1.69c0,0.66 -0.27,1.25 -0.7,1.68 -0.21,0.21 -0.45,0.38 -0.72,0.5l-2.76 13.68c-0.04,0.34 -0.33,0.61 -0.68,0.61l-12.07 0 0 -0c-0.32,0 -0.6,-0.22 -0.67,-0.55l-2.77 -13.74c-0.27,-0.12 -0.51,-0.29 -0.72,-0.5 -0.43,-0.43 -0.7,-1.03 -0.7,-1.68l0 -1.69c0,-0.68 0.27,-1.29 0.71,-1.74 0.44,-0.45 1.04,-0.72 1.72,-0.72l7.29 0zm5.2 17.48c-0.14,0.24 -0.45,0.33 -0.7,0.19 -0.24,-0.14 -0.33,-0.45 -0.19,-0.7l1.67 -2.89c0.14,-0.24 0.45,-0.33 0.7,-0.19 0.24,0.14 0.33,0.45 0.19,0.7l-1.67 2.89zm-2.75 -0.39c-0.14,0.24 -0.45,0.33 -0.7,0.19 -0.24,-0.14 -0.33,-0.45 -0.19,-0.7l3.26 -5.65c0.14,-0.24 0.45,-0.33 0.7,-0.19 0.24,0.14 0.33,0.45 0.19,0.7l-3.26 5.65z"/>
 </g>
</svg>
