<?xml version="1.0" encoding="UTF-8"?>
<!DOCTYPE svg PUBLIC "-//W3C//DTD SVG 1.1//EN" "http://www.w3.org/Graphics/SVG/1.1/DTD/svg11.dtd">
<!-- Creator: CorelDRAW 2020 (64 Bit) -->
<svg xmlns="http://www.w3.org/2000/svg" xml:space="preserve" width="20.2652mm" height="19.5091mm" version="1.1" style="shape-rendering:geometricPrecision; text-rendering:geometricPrecision; image-rendering:optimizeQuality; fill-rule:evenodd; clip-rule:evenodd"
viewBox="0 0 33.07 31.84"
 xmlns:xlink="http://www.w3.org/1999/xlink"
 xmlns:xodm="http://www.corel.com/coreldraw/odm/2003">
 <defs>
  <style type="text/css">
   <![CDATA[
    .fil0 {fill:#373435;fill-rule:nonzero}
   ]]>
  </style>
 </defs>
 <g id="Camada_x0020_1">
  <metadata id="CorelCorpID_0Corel-Layer"/>
  <path class="fil0" d="M5.21 0l22.65 0c1.43,0 2.74,0.59 3.68,1.53 0.94,0.94 1.53,2.25 1.53,3.68l0 9.59c0,1.43 -0.59,2.74 -1.53,3.68 -0.94,0.94 -2.25,1.53 -3.68,1.53l-22.65 0c-1.43,0 -2.74,-0.59 -3.68,-1.53 -0.94,-0.94 -1.53,-2.25 -1.53,-3.68l0 -9.59c0,-1.43 0.59,-2.74 1.53,-3.68 0.94,-0.94 2.25,-1.53 3.68,-1.53zm3.66 23.91c0.09,-0.33 0.42,-0.52 0.75,-0.43 0.33,0.09 0.52,0.42 0.43,0.75 -0.46,1.73 -1.52,3.41 -2.89,4.76 -1.36,1.33 -3.04,2.34 -4.78,2.75 -0.33,0.08 -0.66,-0.13 -0.73,-0.46 -0.08,-0.33 0.13,-0.66 0.46,-0.73 1.52,-0.36 3,-1.25 4.2,-2.43 1.22,-1.2 2.16,-2.68 2.57,-4.2zm10.46 0.21c0.02,-0.34 0.3,-0.6 0.64,-0.58 0.34,0.02 0.6,0.3 0.58,0.64 -0.07,1.52 -0.39,2.98 -0.94,4.27 -0.54,1.26 -1.3,2.37 -2.28,3.24 -0.25,0.22 -0.64,0.2 -0.86,-0.05 -0.22,-0.25 -0.2,-0.64 0.05,-0.86 0.84,-0.74 1.49,-1.7 1.96,-2.8 0.49,-1.16 0.78,-2.47 0.85,-3.85zm-5.02 -0.06c0.05,-0.33 0.36,-0.56 0.7,-0.51 0.33,0.05 0.56,0.36 0.51,0.7 -0.23,1.53 -0.78,2.97 -1.58,4.24 -0.81,1.28 -1.88,2.39 -3.15,3.25 -0.28,0.19 -0.66,0.11 -0.85,-0.16 -0.19,-0.28 -0.11,-0.66 0.16,-0.85 1.13,-0.77 2.08,-1.75 2.8,-2.89 0.71,-1.13 1.2,-2.41 1.4,-3.77zm14.12 -10.82c0.29,0 0.55,-0.12 0.73,-0.3 0.19,-0.19 0.3,-0.45 0.3,-0.73 0,-0.29 -0.12,-0.55 -0.3,-0.73 -0.19,-0.19 -0.45,-0.3 -0.73,-0.3 -0.29,0 -0.55,0.12 -0.73,0.3 -0.19,0.19 -0.3,0.45 -0.3,0.73 0,0.29 0.12,0.55 0.3,0.73 0.19,0.19 0.45,0.3 0.73,0.3zm1.59 0.56c-0.41,0.41 -0.97,0.66 -1.59,0.66 -0.62,0 -1.19,-0.25 -1.59,-0.66l-0 -0c-0.41,-0.41 -0.66,-0.97 -0.66,-1.59 0,-0.62 0.25,-1.19 0.66,-1.59l0 -0c0.41,-0.41 0.97,-0.66 1.59,-0.66 0.62,0 1.19,0.25 1.59,0.66l0 0c0.41,0.41 0.66,0.97 0.66,1.59 0,0.62 -0.25,1.19 -0.66,1.59l-0 0zm-1.59 -7.01c0.29,0 0.55,-0.12 0.73,-0.3 0.19,-0.19 0.3,-0.45 0.3,-0.73 0,-0.29 -0.12,-0.55 -0.3,-0.73 -0.19,-0.19 -0.45,-0.3 -0.73,-0.3 -0.29,0 -0.55,0.12 -0.73,0.3 -0.19,0.19 -0.3,0.45 -0.3,0.73 0,0.29 0.12,0.55 0.3,0.73 0.19,0.19 0.45,0.3 0.73,0.3zm1.59 0.56c-0.41,0.41 -0.97,0.66 -1.59,0.66 -0.62,0 -1.19,-0.25 -1.59,-0.66l-0 -0c-0.41,-0.41 -0.66,-0.97 -0.66,-1.59 0,-0.62 0.25,-1.19 0.66,-1.59l0 -0c0.41,-0.41 0.97,-0.66 1.59,-0.66 0.62,0 1.19,0.25 1.59,0.66l0 0c0.41,0.41 0.66,0.97 0.66,1.59 0,0.62 -0.25,1.19 -0.66,1.59l-0 0zm-24.65 8.03c-0.34,0 -0.61,-0.27 -0.61,-0.61 0,-0.34 0.27,-0.61 0.61,-0.61l17.49 0c0.34,0 0.61,0.27 0.61,0.61 0,0.34 -0.27,0.61 -0.61,0.61l-17.49 0zm0 -4.48c-0.34,0 -0.61,-0.27 -0.61,-0.61 0,-0.34 0.27,-0.61 0.61,-0.61l17.49 0c0.34,0 0.61,0.27 0.61,0.61 0,0.34 -0.27,0.61 -0.61,0.61l-17.49 0zm0 -4.48c-0.34,0 -0.61,-0.27 -0.61,-0.61 0,-0.34 0.27,-0.61 0.61,-0.61l17.49 0c0.34,0 0.61,0.27 0.61,0.61 0,0.34 -0.27,0.61 -0.61,0.61l-17.49 0zm22.48 -4.79l-22.65 0c-0.98,0 -1.88,0.4 -2.53,1.05 -0.65,0.65 -1.05,1.54 -1.05,2.53l0 9.59c0,0.98 0.4,1.88 1.05,2.53 0.65,0.65 1.54,1.05 2.53,1.05l22.65 0c0.98,0 1.88,-0.4 2.53,-1.05 0.65,-0.65 1.05,-1.54 1.05,-2.53l0 -9.59c0,-0.98 -0.4,-1.88 -1.05,-2.53 -0.65,-0.65 -1.54,-1.05 -2.53,-1.05z"/>
 </g>
</svg>
