<?xml version="1.0" encoding="UTF-8"?>
<!DOCTYPE svg PUBLIC "-//W3C//DTD SVG 1.1//EN" "http://www.w3.org/Graphics/SVG/1.1/DTD/svg11.dtd">
<!-- Creator: CorelDRAW 2020 (64 Bit) -->
<svg xmlns="http://www.w3.org/2000/svg" xml:space="preserve" width="25.9185mm" height="23.9604mm" version="1.1" style="shape-rendering:geometricPrecision; text-rendering:geometricPrecision; image-rendering:optimizeQuality; fill-rule:evenodd; clip-rule:evenodd"
viewBox="0 0 54.34 50.24"
 xmlns:xlink="http://www.w3.org/1999/xlink"
 xmlns:xodm="http://www.corel.com/coreldraw/odm/2003">
 <defs>
  <style type="text/css">
   <![CDATA[
    .fil0 {fill:#373435;fill-rule:nonzero}
   ]]>
  </style>
 </defs>
 <g id="Camada_x0020_1">
  <metadata id="CorelCorpID_0Corel-Layer"/>
  <path class="fil0" d="M30.36 24.45c-0.47,-0.17 -0.93,-0.35 -1.37,-0.54 0.05,0.18 0.08,0.36 0.11,0.54l1.26 0zm-9.85 0c0.14,-0.99 0.57,-1.88 1.2,-2.57 0.64,-0.7 1.47,-1.18 2.4,-1.34 -1.6,-1.74 -2.42,-3.79 -2.17,-5.88 0.33,-2.78 1.85,-4.05 2.93,-4.94 0.34,-0.28 0.62,-0.52 0.71,-0.69 1.28,-2.33 2.91,-4.01 4.91,-5.03 1.01,-0.52 2.12,-0.86 3.31,-1.04 1.18,-1.98 2.7,-3.13 4.21,-2.95 1.53,0.18 2.74,1.69 3.42,3.94 1.02,0.44 1.92,1 2.72,1.68 1.7,1.46 2.89,3.48 3.59,6.04 0.05,0.18 0.27,0.48 0.54,0.83 0.83,1.12 2.01,2.71 1.68,5.49 -0.31,2.6 -2.21,4.73 -5.02,6.08 -0.28,0.13 -0.56,0.26 -0.85,0.37l9.21 0c0.58,0 1.05,0.47 1.05,1.05l0 3.6c0,1.19 -0.45,2.28 -1.19,3.1l-0.06 0.06c-0.53,0.57 -1.21,1.01 -1.96,1.26l0 6.07c0,2.93 -1.2,5.59 -3.13,7.52 -1.93,1.93 -4.59,3.13 -7.52,3.13l-26.62 0c-2.93,0 -5.59,-1.2 -7.52,-3.13 -1.93,-1.93 -3.13,-4.59 -3.13,-7.52l0 -6.07c-0.79,-0.26 -1.48,-0.72 -2.02,-1.32l-0 0c-0.74,-0.83 -1.19,-1.91 -1.19,-3.1l0 -3.6c0,-0.58 0.47,-1.05 1.05,-1.05l19.47 0zm31.73 2.1l-50.15 0 0 2.56c0,0.65 0.25,1.25 0.65,1.7l0 0c0.4,0.44 0.95,0.75 1.57,0.83 0.55,0.03 0.99,0.49 0.99,1.05l0 6.91c0,2.35 0.96,4.49 2.51,6.04 1.55,1.55 3.69,2.51 6.04,2.51l26.62 0c2.35,0 4.49,-0.96 6.04,-2.51 1.55,-1.55 2.51,-3.69 2.51,-6.04l0 -6.91 0 0c-0,-0.53 0.4,-0.98 0.94,-1.04 0.62,-0.07 1.18,-0.36 1.58,-0.79l0.04 -0.05c0.41,-0.45 0.65,-1.05 0.65,-1.7l0 -2.56zm-30.12 -2.16l5.37 0c-0.13,-0.56 -0.39,-1.06 -0.75,-1.45 -0.5,-0.55 -1.18,-0.89 -1.94,-0.89 -0.75,0 -1.44,0.34 -1.94,0.89 -0.36,0.39 -0.62,0.89 -0.75,1.45zm29.03 -18.74c-0.25,-0.14 -0.34,-0.46 -0.19,-0.71 0.14,-0.25 0.46,-0.34 0.71,-0.19 0.65,0.37 1.19,0.88 1.59,1.49 0.4,0.6 0.67,1.3 0.76,2.04 0.04,0.29 -0.17,0.55 -0.46,0.58 -0.29,0.04 -0.55,-0.17 -0.58,-0.46 -0.07,-0.58 -0.28,-1.12 -0.59,-1.59 -0.31,-0.47 -0.73,-0.87 -1.24,-1.16zm-37.4 14.28c0.54,0 1.04,-0.22 1.39,-0.57 0.35,-0.36 0.57,-0.85 0.57,-1.39 0,-0.54 -0.22,-1.04 -0.57,-1.39l-0 0c-0.36,-0.36 -0.85,-0.58 -1.39,-0.58 -0.54,0 -1.03,0.22 -1.39,0.58 -0.36,0.35 -0.58,0.85 -0.58,1.39 0,0.54 0.22,1.03 0.58,1.39 0.36,0.36 0.85,0.58 1.39,0.58zm2.5 0.54c-0.64,0.64 -1.52,1.04 -2.5,1.04 -0.98,0 -1.86,-0.4 -2.5,-1.04 -0.64,-0.64 -1.04,-1.52 -1.04,-2.5 0,-0.97 0.4,-1.86 1.04,-2.5l0 -0c0.64,-0.64 1.52,-1.04 2.5,-1.04 0.98,0 1.86,0.4 2.5,1.04 0.64,0.64 1.04,1.53 1.04,2.5 0,0.98 -0.4,1.86 -1.04,2.5l-0 0zm-8.78 -8.11c1.14,0 2.18,-0.46 2.93,-1.21l0 0c0.75,-0.75 1.21,-1.78 1.21,-2.93 0,-1.14 -0.46,-2.18 -1.21,-2.93 -0.75,-0.75 -1.78,-1.21 -2.93,-1.21 -1.14,0 -2.18,0.46 -2.93,1.21 -0.75,0.75 -1.21,1.78 -1.21,2.93 0,1.14 0.46,2.18 1.21,2.93 0.75,0.75 1.78,1.21 2.93,1.21zm4.04 -0.1c-1.03,1.04 -2.46,1.67 -4.04,1.67 -1.58,0 -3.01,-0.64 -4.04,-1.67 -1.03,-1.03 -1.67,-2.46 -1.67,-4.04 0,-1.58 0.64,-3.01 1.67,-4.04 1.03,-1.03 2.46,-1.67 4.04,-1.67 1.58,0 3.01,0.64 4.04,1.67 1.03,1.03 1.67,2.46 1.67,4.04 0,1.57 -0.64,3 -1.67,4.04zm31.19 9.44c-0.15,0.25 -0.47,0.32 -0.72,0.17 -0.25,-0.15 -0.32,-0.47 -0.17,-0.72 0.39,-0.63 0.92,-1.16 1.54,-1.54 0.62,-0.38 1.32,-0.62 2.07,-0.69 0.29,-0.02 0.54,0.19 0.57,0.47 0.02,0.29 -0.19,0.54 -0.47,0.57 -0.58,0.05 -1.13,0.24 -1.61,0.54 -0.48,0.3 -0.89,0.71 -1.2,1.2zm6.21 -14.55c-0.25,-0.14 -0.34,-0.46 -0.19,-0.71 0.14,-0.25 0.46,-0.34 0.71,-0.19 0.65,0.37 1.19,0.88 1.59,1.49 0.4,0.6 0.67,1.3 0.76,2.04 0.04,0.29 -0.17,0.55 -0.46,0.58 -0.29,0.04 -0.55,-0.17 -0.58,-0.46 -0.07,-0.58 -0.28,-1.12 -0.59,-1.59 -0.31,-0.47 -0.73,-0.87 -1.24,-1.16zm-11.04 7.8c-0.03,0.29 -0.29,0.49 -0.58,0.46 -0.29,-0.03 -0.49,-0.29 -0.46,-0.58 0.07,-0.56 0.36,-1.05 0.77,-1.37 0.41,-0.32 0.95,-0.49 1.51,-0.43 0.56,0.07 1.05,0.36 1.37,0.77 0.32,0.41 0.49,0.95 0.43,1.51 -0.03,0.29 -0.29,0.49 -0.58,0.46 -0.29,-0.03 -0.49,-0.29 -0.46,-0.58 0.03,-0.28 -0.05,-0.54 -0.21,-0.74 -0.16,-0.2 -0.4,-0.34 -0.67,-0.38 -0.28,-0.03 -0.54,0.05 -0.74,0.21 -0.2,0.16 -0.34,0.4 -0.38,0.67zm-5.8 -0.69c-0.03,0.29 -0.29,0.49 -0.58,0.46 -0.29,-0.03 -0.49,-0.29 -0.46,-0.58 0.07,-0.56 0.36,-1.05 0.77,-1.37 0.41,-0.32 0.95,-0.49 1.51,-0.43 0.56,0.07 1.05,0.36 1.37,0.77 0.32,0.41 0.49,0.95 0.43,1.51 -0.03,0.29 -0.29,0.49 -0.58,0.46 -0.29,-0.03 -0.49,-0.29 -0.46,-0.58 0.03,-0.28 -0.05,-0.54 -0.21,-0.74 -0.16,-0.2 -0.4,-0.34 -0.67,-0.38 -0.28,-0.03 -0.54,0.05 -0.74,0.21 -0.2,0.16 -0.34,0.4 -0.38,0.67zm7.4 -3.03c-0.34,-0.04 -0.68,-0.01 -1,0.08 -0.33,0.1 -0.64,0.26 -0.93,0.48 -0.44,0.35 -0.85,0.5 -1.26,0.45 -0.41,-0.05 -0.77,-0.29 -1.13,-0.71 -0.26,-0.29 -0.52,-0.54 -0.8,-0.71 -0.27,-0.17 -0.58,-0.28 -0.95,-0.32l-0.01 -0c-0.8,-0.09 -1.57,0.21 -2.18,0.78 -0.63,0.59 -1.08,1.47 -1.2,2.48l-0 0.01c-0.12,1.02 0.11,1.98 0.59,2.7 0.45,0.7 1.13,1.17 1.93,1.27l0 0c0.36,0.04 0.71,0.01 1.04,-0.1 0.35,-0.11 0.68,-0.3 0.98,-0.54 0.19,-0.16 0.3,-0.26 0.39,-0.34 0.31,-0.29 0.47,-0.44 0.82,-0.4 0.33,0.04 0.49,0.25 0.81,0.69l0.25 0.34c0.23,0.3 0.51,0.56 0.82,0.74 0.29,0.17 0.62,0.29 0.97,0.33 0.8,0.09 1.57,-0.21 2.18,-0.78 0.63,-0.59 1.08,-1.46 1.2,-2.47l0 -0.02c0.12,-1.02 -0.11,-1.98 -0.59,-2.7 -0.45,-0.7 -1.13,-1.17 -1.92,-1.27l-0.01 -0zm-1.29 -0.92c0.44,-0.13 0.91,-0.17 1.38,-0.12l0.04 0c1.12,0.13 2.06,0.79 2.68,1.74 0.6,0.91 0.9,2.1 0.75,3.36l-0 0.04c-0.15,1.27 -0.72,2.37 -1.53,3.13 -0.83,0.78 -1.9,1.19 -3.02,1.06 -0.5,-0.06 -0.97,-0.23 -1.39,-0.48 -0.43,-0.25 -0.8,-0.6 -1.12,-1.01l-0.26 -0.35c-0.05,-0.07 -0.06,-0.12 -0.07,-0.15l-0.01 0.01c-0.12,0.11 -0.28,0.26 -0.43,0.38 -0.4,0.33 -0.85,0.58 -1.34,0.73 -0.46,0.14 -0.94,0.2 -1.43,0.14l-0.04 -0c-1.12,-0.13 -2.06,-0.79 -2.69,-1.74 -0.6,-0.91 -0.89,-2.1 -0.75,-3.36l0 -0.04c0.15,-1.27 0.72,-2.37 1.53,-3.13 0.82,-0.77 1.87,-1.18 2.98,-1.06l0.04 0c0.53,0.06 0.97,0.22 1.38,0.47 0.39,0.24 0.73,0.55 1.05,0.92 0.19,0.22 0.34,0.33 0.46,0.35 0.12,0.01 0.28,-0.06 0.49,-0.23 0.39,-0.3 0.82,-0.53 1.28,-0.66zm-2.57 7.1c-0.11,-0.01 0.01,0.02 0.04,0.07 0.01,-0.05 0.02,-0.07 -0.04,-0.07zm-9.23 3.13c2.1,1.71 5.16,2.98 8.66,3.4 3.5,0.42 6.77,-0.1 9.22,-1.27 2.33,-1.11 3.9,-2.82 4.14,-4.84 0.26,-2.17 -0.7,-3.46 -1.38,-4.37 -0.36,-0.49 -0.66,-0.89 -0.79,-1.36 -0.62,-2.25 -1.64,-4.01 -3.1,-5.26 -1.46,-1.25 -3.38,-2.02 -5.78,-2.31 -2.4,-0.29 -4.44,0.01 -6.16,0.89 -1.71,0.87 -3.12,2.34 -4.25,4.38 -0.23,0.42 -0.62,0.74 -1.09,1.13 -0.87,0.73 -2.11,1.76 -2.37,3.93 -0.24,2.03 0.88,4.05 2.88,5.68z"/>
 </g>
</svg>
