<?xml version="1.0" encoding="UTF-8"?>
<!DOCTYPE svg PUBLIC "-//W3C//DTD SVG 1.1//EN" "http://www.w3.org/Graphics/SVG/1.1/DTD/svg11.dtd">
<!-- Creator: CorelDRAW 2020 (64 Bit) -->
<svg xmlns="http://www.w3.org/2000/svg" xml:space="preserve" width="21.1259mm" height="20.3154mm" version="1.1" style="shape-rendering:geometricPrecision; text-rendering:geometricPrecision; image-rendering:optimizeQuality; fill-rule:evenodd; clip-rule:evenodd"
viewBox="0 0 35.96 34.58"
 xmlns:xlink="http://www.w3.org/1999/xlink"
 xmlns:xodm="http://www.corel.com/coreldraw/odm/2003">
 <defs>
  <style type="text/css">
   <![CDATA[
    .fil0 {fill:#373435;fill-rule:nonzero}
   ]]>
  </style>
 </defs>
 <g id="Camada_x0020_1">
  <metadata id="CorelCorpID_0Corel-Layer"/>
  <path class="fil0" d="M23.86 16.82c1.41,0 2.71,-0.44 3.79,-1.19 -0.6,-0.63 -1.09,-1.36 -1.44,-2.15 -0.46,-1.02 -0.71,-2.13 -0.71,-3.27 0,-1.14 0.25,-2.25 0.71,-3.27 0.36,-0.79 0.84,-1.51 1.44,-2.15 -1.07,-0.75 -2.38,-1.19 -3.79,-1.19 -1.41,0 -2.71,0.44 -3.79,1.19 0.6,0.63 1.09,1.36 1.44,2.15 0.46,1.02 0.71,2.13 0.71,3.27 0,1.14 -0.25,2.25 -0.71,3.27 -0.36,0.79 -0.84,1.51 -1.44,2.15 1.07,0.75 2.38,1.19 3.79,1.19zm10.32 -12.21c0.08,0.27 -0.08,0.55 -0.35,0.63 -0.27,0.08 -0.55,-0.08 -0.63,-0.35 -0.17,-0.58 -0.47,-1.1 -0.87,-1.52 -0.4,-0.43 -0.91,-0.76 -1.48,-0.95 -0.26,-0.09 -0.4,-0.38 -0.31,-0.64 0.09,-0.26 0.38,-0.4 0.64,-0.31 0.72,0.25 1.36,0.67 1.88,1.21 0.51,0.54 0.9,1.2 1.11,1.94zm1.76 -1.43c0.08,0.27 -0.08,0.55 -0.35,0.63 -0.27,0.08 -0.55,-0.08 -0.63,-0.35 -0.17,-0.58 -0.47,-1.1 -0.87,-1.52 -0.4,-0.43 -0.91,-0.76 -1.48,-0.95 -0.26,-0.09 -0.4,-0.38 -0.31,-0.64 0.09,-0.26 0.38,-0.4 0.64,-0.31 0.72,0.25 1.36,0.67 1.88,1.21 0.51,0.54 0.9,1.2 1.11,1.94zm-32.18 -0.06c1.52,-0.59 3.14,-0.52 4.53,0.09 1.39,0.61 2.54,1.74 3.14,3.26 0.01,0.04 0.03,0.07 0.04,0.11 0.77,2.93 1.53,5.74 2.22,8.32 1.29,4.78 2.35,8.71 3.2,12.37 1.19,0.08 2.05,0.37 2.6,0.8 0.5,0.39 0.76,0.88 0.81,1.43 0.04,0.5 -0.1,1.03 -0.43,1.55 -0.61,0.97 -1.95,2 -3.9,2.78l-0.01 0 0 0c-1.96,0.75 -3.63,0.9 -4.74,0.61 -0.59,-0.16 -1.06,-0.45 -1.37,-0.85 -0.34,-0.44 -0.48,-0.98 -0.38,-1.59 0.11,-0.69 0.55,-1.49 1.37,-2.35 -1.32,-2.31 -2.75,-4.81 -4.43,-7.83 -1.76,-3.16 -3.71,-6.73 -5.95,-10.95 -0.01,-0.03 -0.03,-0.06 -0.04,-0.09 -0.6,-1.52 -0.52,-3.14 0.09,-4.53 0.61,-1.39 1.74,-2.54 3.26,-3.14zm3.85 1.65c-0.99,-0.43 -2.14,-0.49 -3.23,-0.06l-0 0c-1.08,0.42 -1.89,1.25 -2.33,2.24 -0.43,0.98 -0.49,2.11 -0.08,3.19 2.24,4.23 4.18,7.77 5.9,10.87 1.67,3 3.25,5.77 4.75,8.38l-0 0c0.19,0.34 0.13,0.77 -0.16,1.05 -0.84,0.77 -1.25,1.39 -1.33,1.85 -0.02,0.13 -0,0.23 0.05,0.29 0.08,0.1 0.24,0.18 0.47,0.25 0.79,0.21 2.09,0.06 3.7,-0.55l0 0c1.59,-0.64 2.64,-1.41 3.08,-2.1 0.13,-0.2 0.19,-0.37 0.17,-0.5 -0.01,-0.08 -0.06,-0.16 -0.16,-0.24 -0.36,-0.28 -1.07,-0.46 -2.18,-0.46 -0.41,0.03 -0.79,-0.25 -0.88,-0.66 -0.87,-3.77 -1.97,-7.88 -3.34,-12.95 -0.66,-2.43 -1.37,-5.1 -2.22,-8.29 -0.43,-1.06 -1.24,-1.86 -2.22,-2.29zm11.5 0.86c-1.15,1.19 -1.85,2.8 -1.85,4.58 0,1.78 0.7,3.4 1.85,4.58 0.53,-0.54 0.95,-1.17 1.26,-1.85 0.39,-0.85 0.59,-1.78 0.59,-2.74 0,-0.96 -0.21,-1.89 -0.59,-2.74 -0.31,-0.68 -0.73,-1.3 -1.26,-1.85zm9.51 9.17c1.15,-1.19 1.85,-2.8 1.85,-4.58 0,-1.78 -0.7,-3.4 -1.85,-4.58 -0.53,0.55 -0.95,1.17 -1.26,1.85 -0.39,0.85 -0.59,1.78 -0.59,2.74 0,0.96 0.21,1.89 0.59,2.74 0.31,0.68 0.73,1.3 1.26,1.85zm0.82 0.99c-1.43,1.43 -3.4,2.31 -5.57,2.31 -2.18,0 -4.15,-0.88 -5.57,-2.31 -1.43,-1.43 -2.31,-3.4 -2.31,-5.57 0,-2.18 0.88,-4.15 2.31,-5.57 1.43,-1.43 3.4,-2.31 5.57,-2.31 2.18,0 4.15,0.88 5.57,2.31 1.43,1.43 2.31,3.4 2.31,5.57 0,2.18 -0.88,4.15 -2.31,5.57z"/>
 </g>
</svg>
