<?xml version="1.0" encoding="UTF-8"?>
<!DOCTYPE svg PUBLIC "-//W3C//DTD SVG 1.1//EN" "http://www.w3.org/Graphics/SVG/1.1/DTD/svg11.dtd">
<!-- Creator: CorelDRAW 2020 (64 Bit) -->
<svg xmlns="http://www.w3.org/2000/svg" xml:space="preserve" width="32.0506mm" height="24.5617mm" version="1.1" style="shape-rendering:geometricPrecision; text-rendering:geometricPrecision; image-rendering:optimizeQuality; fill-rule:evenodd; clip-rule:evenodd"
viewBox="0 0 89.15 68.32"
 xmlns:xlink="http://www.w3.org/1999/xlink"
 xmlns:xodm="http://www.corel.com/coreldraw/odm/2003">
 <defs>
  <style type="text/css">
   <![CDATA[
    .fil0 {fill:#373435;fill-rule:nonzero}
   ]]>
  </style>
 </defs>
 <g id="Camada_x0020_1">
  <metadata id="CorelCorpID_0Corel-Layer"/>
  <path class="fil0" d="M82.31 18.89c-2.05,-2.32 -4.23,-4.62 -6.41,-6.91 -2.19,-2.3 -4.38,-4.6 -6.47,-6.96 -0.51,0.61 -0.98,1.22 -1.45,1.83 -0.8,1.04 -1.59,2.07 -2.58,3.12 -0.25,0.26 -0.57,0.4 -0.9,0.41l-2.16 0.19c-8.04,0.72 -11.37,1.02 -16.84,4.38 -2.98,1.83 -4.63,3.55 -5.15,4.87 -0.14,0.36 -0.18,0.65 -0.13,0.85 0.04,0.13 0.15,0.24 0.32,0.33 0.64,0.33 1.8,0.35 3.43,-0.03 0.71,-0.17 1.42,0.27 1.59,0.98 0.15,0.62 -0.17,1.24 -0.72,1.5 -2.33,1.27 -3.35,2.74 -3.45,3.91 -0.04,0.44 0.07,0.82 0.28,1.1 0.21,0.28 0.54,0.48 0.98,0.57 0.96,0.19 2.29,-0.17 3.82,-1.36 0.39,-0.4 0.83,-0.79 1.32,-1.18 0.52,-0.41 1.27,-0.38 1.74,0.1 0.51,0.51 0.52,1.34 0.01,1.86 -0.44,0.44 -0.88,0.84 -1.31,1.18 -1.34,1.38 -1.86,2.67 -1.77,3.66 0.04,0.4 0.18,0.74 0.42,1.02 0.24,0.28 0.59,0.5 1.03,0.63 1.41,0.41 3.55,-0.09 5.91,-2.07 0.56,-0.47 1.39,-0.39 1.85,0.16 0.45,0.54 0.4,1.33 -0.11,1.81 -1.65,1.69 -2.33,3.33 -2.27,4.62 0.02,0.51 0.18,0.96 0.44,1.31 0.26,0.34 0.63,0.6 1.1,0.74 1.18,0.36 2.91,0.08 5.04,-1.15 1.22,-0.71 2.36,-1.69 3.31,-2.75 0.98,-1.1 1.73,-2.29 2.12,-3.34 0.25,-0.68 1.01,-1.03 1.69,-0.78 0.43,0.16 0.72,0.51 0.82,0.92 0.57,1.9 1.36,3.04 2.21,3.58 0.47,0.3 0.96,0.4 1.45,0.34 0.53,-0.06 1.06,-0.31 1.55,-0.71 1.05,-0.85 1.9,-2.31 2.19,-4.11 0.32,-1.99 0.02,-4.35 -0.27,-6.58 -0.09,-0.68 -0.17,-1.35 -0.23,-1.84 -0.05,-0.49 0.17,-0.95 0.55,-1.21l7.06 -4.97zm-2.48 19.27c0.06,-0.72 0.69,-1.27 1.42,-1.21 0.72,0.06 1.27,0.69 1.21,1.42 -0.1,1.22 -0.48,2.38 -1.09,3.41 -0.61,1.02 -1.46,1.9 -2.5,2.56 -0.61,0.39 -1.43,0.2 -1.81,-0.41 -0.39,-0.61 -0.2,-1.43 0.41,-1.81 0.68,-0.43 1.24,-1.01 1.65,-1.69 0.41,-0.67 0.66,-1.44 0.72,-2.25zm6.7 2.13c0.03,-0.72 0.65,-1.28 1.37,-1.25 0.72,0.03 1.29,0.65 1.25,1.37 -0.07,1.38 -0.45,2.7 -1.11,3.86 -0.66,1.17 -1.58,2.19 -2.72,2.96 -0.6,0.41 -1.42,0.25 -1.83,-0.36 -0.41,-0.6 -0.25,-1.42 0.36,-1.83 0.8,-0.54 1.44,-1.25 1.9,-2.06 0.46,-0.82 0.73,-1.74 0.78,-2.7zm-42.92 -30.87c-0.42,0.59 -1.24,0.74 -1.83,0.32 -0.59,-0.42 -0.74,-1.24 -0.32,-1.83 0.66,-0.94 1.52,-1.69 2.5,-2.22 0.98,-0.53 2.08,-0.83 3.24,-0.86 0.72,-0.02 1.33,0.55 1.35,1.28 0.02,0.72 -0.55,1.33 -1.28,1.35 -0.73,0.02 -1.43,0.22 -2.06,0.55 -0.63,0.34 -1.18,0.82 -1.6,1.42zm-12.22 58.9c-8.55,0 -16.32,-2.21 -21.97,-5.78 -5.82,-3.68 -9.43,-8.83 -9.43,-14.57 0,-6.14 2.99,-9.3 5.1,-11.55 0.72,-0.76 1.32,-1.4 1.51,-1.87 2.22,-5.47 5.36,-9.59 9.5,-12.36 2,-1.34 4.21,-2.36 6.66,-3.05 2.13,-5.06 5.32,-8.28 8.88,-8.28 2.93,0 5.61,2.17 7.65,5.76 1.07,-1.25 2.65,-2.59 4.8,-3.91 5.98,-3.68 9.51,-3.99 18,-4.75l1.71 -0.15c0.77,-0.85 1.43,-1.71 2.08,-2.56 0.8,-1.04 1.59,-2.07 2.58,-3.12l0.1 -0.1c0.55,-0.47 1.38,-0.41 1.85,0.14 2.32,2.7 4.84,5.35 7.36,8 2.53,2.66 5.06,5.31 7.42,8.06 0.04,0.04 0.08,0.09 0.11,0.14 0.42,0.59 0.27,1.41 -0.32,1.83l-7.61 5.36 0.13 1.03c0.31,2.42 0.64,4.98 0.26,7.34 -0.4,2.46 -1.61,4.51 -3.13,5.74 -0.88,0.71 -1.87,1.15 -2.89,1.28 -1.06,0.13 -2.14,-0.09 -3.15,-0.73 -0.82,-0.52 -1.59,-1.32 -2.24,-2.45 -0.37,0.54 -0.79,1.07 -1.25,1.59 -0.97,1.1 -2.13,2.12 -3.37,2.93 0.62,1.56 1.03,3.43 1.03,5.7 0,5.74 -3.6,10.88 -9.43,14.57 -5.64,3.57 -13.41,5.78 -21.97,5.78zm6.6 -49.7l-0.01 0.03 0 0 0.01 -0.03zm-0.08 0.19l-0 0 -0 0 -0 0.01 0 0 0.01 -0.01zm-0.26 2.46c-1.93,-0.4 -4.01,-0.61 -6.25,-0.61 -5.54,0 -10.13,1.24 -13.81,3.71 -3.68,2.47 -6.5,6.19 -8.52,11.17 -0.38,0.92 -1.13,1.72 -2.04,2.68 -1.82,1.92 -4.38,4.64 -4.38,9.74 0,4.77 3.13,9.14 8.19,12.34 5.24,3.32 12.51,5.37 20.57,5.37 8.05,0 15.32,-2.05 20.57,-5.37 5.06,-3.2 8.19,-7.57 8.19,-12.34 0,-1.75 -0.3,-3.21 -0.77,-4.46 -2.08,0.85 -3.9,0.94 -5.33,0.5 -1.03,-0.31 -1.86,-0.89 -2.44,-1.67 -0.58,-0.77 -0.92,-1.71 -0.97,-2.77 -0.03,-0.69 0.06,-1.42 0.28,-2.19 -1.41,0.39 -2.71,0.38 -3.78,0.06 -0.93,-0.27 -1.71,-0.77 -2.28,-1.44 -0.58,-0.68 -0.95,-1.53 -1.04,-2.49 -0.05,-0.59 -0,-1.23 0.18,-1.89 -0.68,0.11 -1.31,0.09 -1.88,-0.02 -1.09,-0.21 -1.97,-0.78 -2.57,-1.57 -0.6,-0.79 -0.89,-1.79 -0.8,-2.89 0.09,-1.1 0.58,-2.3 1.55,-3.45 -0.36,-0.09 -0.68,-0.21 -0.97,-0.35 -0.84,-0.43 -1.4,-1.09 -1.65,-1.92 -0.01,-0.05 -0.03,-0.09 -0.04,-0.14zm3.1 -16.68c-0.42,0.59 -1.24,0.74 -1.83,0.32 -0.59,-0.42 -0.74,-1.24 -0.32,-1.83 0.66,-0.94 1.52,-1.69 2.5,-2.22 0.98,-0.53 2.08,-0.83 3.24,-0.86 0.72,-0.02 1.33,0.55 1.35,1.28 0.02,0.72 -0.55,1.33 -1.28,1.35 -0.73,0.02 -1.43,0.22 -2.06,0.55 -0.63,0.34 -1.18,0.82 -1.6,1.42zm-5.93 40.62c0,0.55 -0.44,0.99 -0.99,0.99 -0.55,0 -0.99,-0.44 -0.99,-0.99 0,-1.23 0.5,-2.34 1.3,-3.14 0.8,-0.8 1.91,-1.3 3.14,-1.3 1.22,0 2.33,0.5 3.14,1.3l0 0c0.8,0.8 1.3,1.91 1.3,3.14 0,0.55 -0.44,0.99 -0.99,0.99 -0.55,0 -0.99,-0.44 -0.99,-0.99 0,-0.68 -0.28,-1.3 -0.72,-1.74 -0.44,-0.45 -1.06,-0.72 -1.74,-0.72 -0.68,0 -1.3,0.28 -1.74,0.72 -0.45,0.45 -0.72,1.06 -0.72,1.74zm-13.18 0c0,0.55 -0.44,0.99 -0.99,0.99 -0.55,0 -0.99,-0.44 -0.99,-0.99 0,-1.23 0.5,-2.34 1.3,-3.14 0.8,-0.8 1.91,-1.3 3.14,-1.3 1.22,0 2.33,0.5 3.14,1.3l0 0c0.8,0.8 1.3,1.91 1.3,3.14 0,0.55 -0.44,0.99 -0.99,0.99 -0.55,0 -0.99,-0.44 -0.99,-0.99 0,-0.68 -0.28,-1.3 -0.72,-1.74 -0.44,-0.45 -1.06,-0.72 -1.74,-0.72 -0.68,0 -1.3,0.28 -1.74,0.72 -0.45,0.45 -0.72,1.06 -0.72,1.74zm15.96 -8.95c-0.8,0 -1.58,0.16 -2.29,0.47 -0.74,0.31 -1.42,0.78 -2.01,1.37 -0.87,0.87 -1.68,1.29 -2.57,1.28 -0.88,-0 -1.7,-0.42 -2.59,-1.23 -0.66,-0.6 -1.32,-1.08 -2.04,-1.41 -0.69,-0.31 -1.45,-0.49 -2.32,-0.49 -1.87,0 -3.58,0.92 -4.82,2.4 -1.28,1.53 -2.08,3.66 -2.08,6.02 0,2.36 0.79,4.49 2.08,6.02 1.24,1.48 2.95,2.4 4.82,2.4 0.84,0 1.64,-0.18 2.37,-0.51 0.78,-0.35 1.5,-0.87 2.12,-1.52 0.33,-0.35 0.58,-0.65 0.79,-0.88l0 0c0.58,-0.68 0.89,-1.04 1.57,-1.03 0.68,0.01 1.05,0.41 1.86,1.26 0.19,0.2 0.42,0.44 0.66,0.69 0.62,0.64 1.33,1.15 2.1,1.49 0.73,0.32 1.52,0.5 2.35,0.5 1.87,0 3.58,-0.92 4.82,-2.4 1.28,-1.53 2.08,-3.66 2.08,-6.02 0,-2.36 -0.79,-4.49 -2.08,-6.02 -1.24,-1.48 -2.95,-2.4 -4.82,-2.4zm-3.06 -1.35c0.96,-0.41 1.99,-0.63 3.06,-0.63 2.48,0 4.72,1.19 6.33,3.11 1.57,1.87 2.54,4.45 2.54,7.29 0,2.84 -0.97,5.42 -2.54,7.29 -1.61,1.92 -3.85,3.11 -6.33,3.11 -1.1,0 -2.17,-0.24 -3.15,-0.68 -1.01,-0.45 -1.92,-1.1 -2.72,-1.92 -0.27,-0.28 -0.49,-0.51 -0.67,-0.71 -0.41,-0.44 -0.27,-0.65 -0.44,-0.65 -0.23,-0 0.13,0.12 -0.05,0.34l0 0c-0.22,0.26 -0.49,0.58 -0.86,0.97 -0.8,0.83 -1.72,1.5 -2.73,1.96 -0.99,0.45 -2.07,0.69 -3.18,0.69 -2.48,0 -4.72,-1.19 -6.33,-3.11 -1.57,-1.87 -2.54,-4.45 -2.54,-7.29 0,-2.84 0.97,-5.42 2.54,-7.29 1.61,-1.92 3.85,-3.11 6.33,-3.11 1.17,0 2.19,0.24 3.13,0.66 0.92,0.42 1.74,1.01 2.55,1.75l0 0c0.52,0.47 0.93,0.71 1.26,0.72 0.32,0 0.7,-0.23 1.17,-0.71 0.77,-0.77 1.66,-1.38 2.63,-1.79z"/>
 </g>
</svg>
