<?xml version="1.0" encoding="UTF-8"?>
<!DOCTYPE svg PUBLIC "-//W3C//DTD SVG 1.1//EN" "http://www.w3.org/Graphics/SVG/1.1/DTD/svg11.dtd">
<!-- Creator: CorelDRAW 2020 (64 Bit) -->
<svg xmlns="http://www.w3.org/2000/svg" xml:space="preserve" width="19.7548mm" height="16.5922mm" version="1.1" style="shape-rendering:geometricPrecision; text-rendering:geometricPrecision; image-rendering:optimizeQuality; fill-rule:evenodd; clip-rule:evenodd"
viewBox="0 0 33.51 28.15"
 xmlns:xlink="http://www.w3.org/1999/xlink"
 xmlns:xodm="http://www.corel.com/coreldraw/odm/2003">
 <defs>
  <style type="text/css">
   <![CDATA[
    .fil0 {fill:#373435;fill-rule:nonzero}
   ]]>
  </style>
 </defs>
 <g id="Camada_x0020_1">
  <metadata id="CorelCorpID_0Corel-Layer"/>
  <path class="fil0" d="M30.2 23.97c-0.11,-0.13 -0.16,-0.29 -0.15,-0.44 -0.45,-0.08 -0.87,-0.27 -1.28,-0.45 -0.42,-0.19 -0.84,-0.37 -1.17,-0.37 -0.55,0 -1.05,0.2 -1.54,0.4 -0.59,0.24 -1.17,0.47 -1.92,0.47 -0.7,0 -1.15,-0.19 -1.66,-0.41 -0.49,-0.21 -1.06,-0.46 -2.05,-0.46 -0.88,0 -1.23,0.13 -1.57,0.26l-0.03 0.01c-0.46,0.17 -0.94,0.34 -2.07,0.34 -1.16,0 -1.63,-0.18 -2.11,-0.36l-0 -0c-0.34,-0.13 -0.69,-0.26 -1.57,-0.26 -0.99,0 -1.56,0.24 -2.05,0.46 -0.51,0.22 -0.96,0.41 -1.66,0.41 -0.75,0 -1.33,-0.23 -1.92,-0.47 -0.49,-0.2 -0.99,-0.4 -1.54,-0.4 -0.34,0 -0.75,0.19 -1.17,0.37 -0.34,0.15 -0.69,0.3 -1.05,0.4 -0.03,0.11 -0.09,0.22 -0.19,0.31 -0.19,0.17 -0.34,0.37 -0.45,0.59l-0 -0c-0.1,0.21 -0.15,0.44 -0.15,0.69 0,0.49 0.22,0.94 0.58,1.27 0.37,0.33 0.88,0.54 1.44,0.54l23.67 0c0.56,0 1.08,-0.21 1.44,-0.54 0.36,-0.33 0.58,-0.78 0.58,-1.27 0,-0.21 -0.04,-0.4 -0.1,-0.58 -0.07,-0.19 -0.18,-0.36 -0.31,-0.52zm-22.17 -14.7c0.36,0 0.65,-0.29 0.65,-0.65 0,-0.36 -0.29,-0.65 -0.65,-0.65 -0.36,0 -0.65,0.29 -0.65,0.65 0,0.36 0.29,0.65 0.65,0.65zm5.54 0.67c0.36,0 0.65,-0.29 0.65,-0.65 0,-0.36 -0.29,-0.65 -0.65,-0.65 -0.36,0 -0.65,0.29 -0.65,0.65 0,0.36 0.29,0.65 0.65,0.65zm7.11 0.15c0.36,0 0.65,-0.29 0.65,-0.65 0,-0.36 -0.29,-0.65 -0.65,-0.65 -0.36,0 -0.65,0.29 -0.65,0.65 0,0.36 0.29,0.65 0.65,0.65zm0.71 -4.26c0.36,0 0.65,-0.29 0.65,-0.65 0,-0.36 -0.29,-0.65 -0.65,-0.65 -0.36,0 -0.65,0.29 -0.65,0.65 0,0.36 0.29,0.65 0.65,0.65zm-4.94 0c0.36,0 0.65,-0.29 0.65,-0.65 0,-0.36 -0.29,-0.65 -0.65,-0.65 -0.36,0 -0.65,0.29 -0.65,0.65 0,0.36 0.29,0.65 0.65,0.65zm-4.94 0c0.36,0 0.65,-0.29 0.65,-0.65 0,-0.36 -0.29,-0.65 -0.65,-0.65 -0.36,0 -0.65,0.29 -0.65,0.65 0,0.36 0.29,0.65 0.65,0.65zm19.92 17.6c0.14,0.2 0.25,0.41 0.33,0.63 0.12,0.32 0.19,0.66 0.19,1 0,0.85 -0.38,1.62 -1,2.18 -0.61,0.55 -1.44,0.89 -2.36,0.89l-23.67 0c-0.92,0 -1.75,-0.34 -2.36,-0.89 -0.62,-0.56 -1,-1.33 -1,-2.18 0,-0.42 0.1,-0.83 0.27,-1.2l-0 -0c0.07,-0.15 0.15,-0.3 0.25,-0.44 -0.47,-0.16 -0.89,-0.43 -1.22,-0.78 -0.53,-0.55 -0.85,-1.28 -0.85,-2 0,-0.72 0.32,-1.38 0.84,-1.86 0.25,-0.23 0.55,-0.43 0.88,-0.56 -0.32,-0.15 -0.61,-0.35 -0.85,-0.6l-0 0c-0.54,-0.54 -0.87,-1.28 -0.87,-2.09 0,-0.81 0.33,-1.55 0.87,-2.09l0.04 -0.04c0.15,-0.14 0.31,-0.27 0.48,-0.38 -0.4,-0.35 -0.4,-0.84 -0.4,-1.52l-0 0 0 -0.06c0,-3.2 1.8,-6.09 4.7,-8.17 2.84,-2.03 6.75,-3.29 11.06,-3.29 4.31,0 8.22,1.26 11.06,3.29 2.9,2.08 4.7,4.96 4.7,8.17l0 0.06 -0 0c0,0.68 0,1.18 -0.38,1.53 0.18,0.12 0.35,0.25 0.5,0.4l0 0c0.54,0.54 0.87,1.28 0.87,2.09 0,0.81 -0.33,1.55 -0.87,2.09l-0.04 0.04c-0.24,0.23 -0.51,0.42 -0.81,0.56 0.33,0.14 0.63,0.33 0.88,0.56 0.52,0.48 0.84,1.14 0.84,1.86 0,0.72 -0.33,1.46 -0.85,2 -0.34,0.35 -0.75,0.62 -1.23,0.78zm-14.67 -4.43l-13.8 0c-0.45,0 -0.86,0.17 -1.16,0.46 -0.32,0.3 -0.52,0.72 -0.52,1.19 0,0.5 0.22,1 0.58,1.37 0.3,0.31 0.69,0.52 1.11,0.52 0.34,0 0.75,-0.19 1.17,-0.37 0.57,-0.25 1.13,-0.5 1.78,-0.5 0.84,0 1.48,0.26 2.1,0.51 0.46,0.18 0.9,0.36 1.36,0.36 0.38,0 0.7,-0.14 1.06,-0.29 0.62,-0.27 1.34,-0.58 2.65,-0.58 1.16,0 1.63,0.18 2.11,0.36 0.34,0.13 0.69,0.26 1.57,0.26 0.86,0 1.21,-0.12 1.54,-0.25l0.03 -0.01c0.47,-0.18 0.94,-0.36 2.11,-0.36 1.31,0 2.02,0.31 2.65,0.58 0.36,0.15 0.68,0.29 1.06,0.29 0.45,0 0.9,-0.18 1.36,-0.36 0.62,-0.25 1.26,-0.51 2.1,-0.51 0.65,0 1.22,0.25 1.78,0.5 0.42,0.18 0.84,0.37 1.17,0.37 0.41,0 0.8,-0.21 1.11,-0.52 0.36,-0.37 0.58,-0.88 0.58,-1.37 0,-0.47 -0.2,-0.89 -0.52,-1.19 -0.3,-0.28 -0.72,-0.46 -1.16,-0.46l-13.8 0zm7.05 -6.43c3.17,-0.01 5.08,-0.05 6.23,-0.19 1.22,-0.14 1.22,-0.38 1.22,-0.88l-0 0 0 -0.06c0,-2.77 -1.59,-5.29 -4.16,-7.13 -2.63,-1.88 -6.29,-3.05 -10.33,-3.05 -4.04,0 -7.69,1.17 -10.33,3.05 -2.57,1.84 -4.16,4.36 -4.16,7.13l0 0.06 -0 0c-0,0.48 -0,0.71 1.26,0.86 1.3,0.15 3.55,0.19 7.42,0.2l12.85 0z"/>
 </g>
</svg>
