<?xml version="1.0" encoding="UTF-8"?>
<!DOCTYPE svg PUBLIC "-//W3C//DTD SVG 1.1//EN" "http://www.w3.org/Graphics/SVG/1.1/DTD/svg11.dtd">
<!-- Creator: CorelDRAW 2020 (64 Bit) -->
<svg xmlns="http://www.w3.org/2000/svg" xml:space="preserve" width="21.4398mm" height="15.1187mm" version="1.1" style="shape-rendering:geometricPrecision; text-rendering:geometricPrecision; image-rendering:optimizeQuality; fill-rule:evenodd; clip-rule:evenodd"
viewBox="0 0 37.05 26.13"
 xmlns:xlink="http://www.w3.org/1999/xlink"
 xmlns:xodm="http://www.corel.com/coreldraw/odm/2003">
 <defs>
  <style type="text/css">
   <![CDATA[
    .fil0 {fill:#373435;fill-rule:nonzero}
   ]]>
  </style>
 </defs>
 <g id="Camada_x0020_1">
  <metadata id="CorelCorpID_0Corel-Layer"/>
  <path class="fil0" d="M18.09 6.67c0,-0.24 0.19,-0.43 0.43,-0.43 0.24,0 0.43,0.19 0.43,0.43l0 15.26c0,0.24 -0.19,0.43 -0.43,0.43 -0.24,0 -0.43,-0.19 -0.43,-0.43l0 -15.26zm0.43 -4.77c0.54,0 1.2,-0.26 2.01,-0.57 1.5,-0.58 3.45,-1.33 6.39,-1.33 2.44,0 4.94,0.4 6.79,1.06 2,0.71 3.33,1.78 3.33,3.09l0 19.9c0,1.38 -0.39,1.86 -1.42,1.86 -0.42,0 -0.89,-0.15 -1.54,-0.37 -1.23,-0.4 -3.21,-1.05 -6.29,-1.08 -3.15,-0.03 -4.98,0.57 -6.42,1.05 -1.02,0.34 -1.86,0.61 -2.85,0.61 -0.99,0 -1.83,-0.28 -2.85,-0.61 -1.44,-0.47 -3.28,-1.08 -6.42,-1.05 -3.08,0.03 -5.07,0.68 -6.29,1.08 -0.65,0.21 -1.12,0.37 -1.54,0.37 -1.02,0 -1.42,-0.48 -1.42,-1.86l0 -19.9c0,-1.31 1.33,-2.38 3.33,-3.09 1.85,-0.66 4.35,-1.06 6.79,-1.06 2.95,0 4.89,0.75 6.39,1.33 0.81,0.31 1.47,0.57 2.01,0.57zm2.63 1.04c-0.99,0.38 -1.79,0.69 -2.63,0.69 -0.84,0 -1.65,-0.31 -2.63,-0.69 -1.36,-0.53 -3.13,-1.21 -5.77,-1.21 -2.26,0 -4.54,0.37 -6.22,0.96 -1.3,0.46 -2.17,0.99 -2.17,1.46l0 19.9c0,0.1 -0.54,0.14 -0.31,0.14 0.16,0 0.51,-0.12 1.01,-0.28 1.32,-0.43 3.45,-1.12 6.81,-1.16 3.44,-0.04 5.43,0.62 6.98,1.13 0.87,0.29 1.59,0.52 2.31,0.52 0.72,0 1.44,-0.24 2.31,-0.52 1.55,-0.51 3.53,-1.16 6.98,-1.13 3.36,0.04 5.5,0.73 6.81,1.16 0.5,0.16 0.85,0.28 1.01,0.28 0.22,0 -0.31,-0.04 -0.31,-0.14l0 -19.9c0,-0.47 -0.87,-1 -2.17,-1.46 -1.68,-0.6 -3.96,-0.96 -6.22,-0.96 -2.64,0 -4.41,0.68 -5.77,1.21zm1.5 16.1c-0.17,0.17 -0.44,0.17 -0.61,0 -0.17,-0.17 -0.17,-0.44 0,-0.61l0.19 -0.2c0.52,-0.53 0.86,-0.89 1.8,-0.95 0.57,-0.04 1.03,0.18 1.5,0.4 0.33,0.16 0.67,0.32 1.01,0.33 0.32,0.01 0.61,-0.19 0.9,-0.39 0.37,-0.26 0.74,-0.52 1.26,-0.52 0.57,0 0.94,0.28 1.3,0.56 0.21,0.17 0.43,0.33 0.63,0.35 0.3,0.03 0.6,-0.19 0.91,-0.41 0.2,-0.15 0.4,-0.29 0.63,-0.41 0.21,-0.1 0.47,-0.01 0.58,0.2 0.1,0.21 0.01,0.47 -0.2,0.58 -0.16,0.08 -0.33,0.2 -0.5,0.33 -0.44,0.32 -0.87,0.64 -1.51,0.57 -0.45,-0.05 -0.75,-0.29 -1.07,-0.53 -0.24,-0.19 -0.49,-0.38 -0.77,-0.38 -0.25,0 -0.5,0.18 -0.76,0.36 -0.4,0.28 -0.82,0.57 -1.42,0.55 -0.51,-0.02 -0.93,-0.22 -1.35,-0.42 -0.36,-0.17 -0.72,-0.34 -1.07,-0.32 -0.6,0.04 -0.86,0.3 -1.24,0.69l-0.2 0.21zm0 -5.49c-0.17,0.17 -0.44,0.17 -0.61,0 -0.17,-0.17 -0.17,-0.44 0,-0.61l0.19 -0.2c0.52,-0.53 0.86,-0.89 1.8,-0.95 0.57,-0.04 1.03,0.18 1.5,0.4 0.33,0.16 0.67,0.32 1.01,0.33 0.32,0.01 0.61,-0.19 0.9,-0.39 0.37,-0.26 0.74,-0.52 1.26,-0.52 0.57,0 0.94,0.28 1.3,0.56 0.21,0.17 0.43,0.33 0.63,0.35 0.3,0.03 0.6,-0.19 0.91,-0.41 0.2,-0.15 0.4,-0.29 0.63,-0.41 0.21,-0.1 0.47,-0.01 0.58,0.2 0.1,0.21 0.01,0.47 -0.2,0.58 -0.16,0.08 -0.33,0.2 -0.5,0.33 -0.44,0.32 -0.87,0.64 -1.51,0.57 -0.45,-0.05 -0.75,-0.29 -1.07,-0.53 -0.24,-0.19 -0.49,-0.38 -0.77,-0.38 -0.25,0 -0.5,0.18 -0.76,0.36 -0.4,0.28 -0.82,0.57 -1.42,0.55 -0.51,-0.02 -0.93,-0.22 -1.35,-0.42 -0.36,-0.17 -0.72,-0.34 -1.07,-0.32 -0.6,0.04 -0.86,0.3 -1.24,0.69l-0.2 0.21zm0 -5.14c-0.17,0.17 -0.44,0.17 -0.61,0 -0.17,-0.17 -0.17,-0.44 0,-0.61l0.19 -0.2c0.52,-0.53 0.86,-0.89 1.8,-0.95 0.57,-0.04 1.03,0.18 1.5,0.4 0.33,0.16 0.67,0.32 1.01,0.33 0.32,0.01 0.61,-0.19 0.9,-0.39 0.37,-0.26 0.74,-0.52 1.26,-0.52 0.57,0 0.94,0.28 1.3,0.56 0.21,0.17 0.43,0.33 0.63,0.35 0.3,0.03 0.6,-0.19 0.91,-0.41 0.2,-0.15 0.4,-0.29 0.63,-0.41 0.21,-0.1 0.47,-0.01 0.58,0.2 0.1,0.21 0.01,0.47 -0.2,0.58 -0.16,0.08 -0.33,0.2 -0.5,0.33 -0.44,0.32 -0.87,0.64 -1.51,0.57 -0.45,-0.05 -0.75,-0.29 -1.07,-0.53 -0.24,-0.19 -0.49,-0.38 -0.77,-0.38 -0.25,0 -0.5,0.18 -0.76,0.36 -0.4,0.28 -0.82,0.57 -1.42,0.55 -0.51,-0.02 -0.93,-0.22 -1.35,-0.42 -0.36,-0.17 -0.72,-0.34 -1.07,-0.32 -0.6,0.04 -0.86,0.3 -1.24,0.69l-0.2 0.21zm-17.66 10.63c-0.17,0.17 -0.44,0.17 -0.61,0 -0.17,-0.17 -0.17,-0.44 0,-0.61l0.19 -0.2c0.52,-0.53 0.86,-0.89 1.8,-0.95 0.57,-0.04 1.03,0.18 1.5,0.4 0.33,0.16 0.67,0.32 1.01,0.33 0.32,0.01 0.61,-0.19 0.9,-0.39 0.37,-0.26 0.74,-0.52 1.26,-0.52 0.57,0 0.94,0.28 1.3,0.56 0.21,0.17 0.43,0.33 0.63,0.35 0.3,0.03 0.6,-0.19 0.91,-0.41 0.2,-0.15 0.4,-0.29 0.63,-0.41 0.21,-0.1 0.47,-0.01 0.58,0.2 0.1,0.21 0.01,0.47 -0.2,0.58 -0.16,0.08 -0.33,0.2 -0.5,0.33 -0.44,0.32 -0.87,0.64 -1.51,0.57 -0.45,-0.05 -0.75,-0.29 -1.07,-0.53 -0.24,-0.19 -0.49,-0.38 -0.77,-0.38 -0.25,0 -0.5,0.18 -0.76,0.36 -0.4,0.28 -0.82,0.57 -1.42,0.55 -0.51,-0.02 -0.93,-0.22 -1.35,-0.42 -0.36,-0.17 -0.72,-0.34 -1.07,-0.32 -0.6,0.04 -0.86,0.3 -1.24,0.69l-0.2 0.21zm0 -5.49c-0.17,0.17 -0.44,0.17 -0.61,0 -0.17,-0.17 -0.17,-0.44 0,-0.61l0.19 -0.2c0.52,-0.53 0.86,-0.89 1.8,-0.95 0.57,-0.04 1.03,0.18 1.5,0.4 0.33,0.16 0.67,0.32 1.01,0.33 0.32,0.01 0.61,-0.19 0.9,-0.39 0.37,-0.26 0.74,-0.52 1.26,-0.52 0.57,0 0.94,0.28 1.3,0.56 0.21,0.17 0.43,0.33 0.63,0.35 0.3,0.03 0.6,-0.19 0.91,-0.41 0.2,-0.15 0.4,-0.29 0.63,-0.41 0.21,-0.1 0.47,-0.01 0.58,0.2 0.1,0.21 0.01,0.47 -0.2,0.58 -0.16,0.08 -0.33,0.2 -0.5,0.33 -0.44,0.32 -0.87,0.64 -1.51,0.57 -0.45,-0.05 -0.75,-0.29 -1.07,-0.53 -0.24,-0.19 -0.49,-0.38 -0.77,-0.38 -0.25,0 -0.5,0.18 -0.76,0.36 -0.4,0.28 -0.82,0.57 -1.42,0.55 -0.51,-0.02 -0.93,-0.22 -1.35,-0.42 -0.36,-0.17 -0.72,-0.34 -1.07,-0.32 -0.6,0.04 -0.86,0.3 -1.24,0.69l-0.2 0.21zm0 -5.14c-0.17,0.17 -0.44,0.17 -0.61,0 -0.17,-0.17 -0.17,-0.44 0,-0.61l0.19 -0.2c0.52,-0.53 0.86,-0.89 1.8,-0.95 0.57,-0.04 1.03,0.18 1.5,0.4 0.33,0.16 0.67,0.32 1.01,0.33 0.32,0.01 0.61,-0.19 0.9,-0.39 0.37,-0.26 0.74,-0.52 1.26,-0.52 0.57,0 0.94,0.28 1.3,0.56 0.21,0.17 0.43,0.33 0.63,0.35 0.3,0.03 0.6,-0.19 0.91,-0.41 0.2,-0.15 0.4,-0.29 0.63,-0.41 0.21,-0.1 0.47,-0.01 0.58,0.2 0.1,0.21 0.01,0.47 -0.2,0.58 -0.16,0.08 -0.33,0.2 -0.5,0.33 -0.44,0.32 -0.87,0.64 -1.51,0.57 -0.45,-0.05 -0.75,-0.29 -1.07,-0.53 -0.24,-0.19 -0.49,-0.38 -0.77,-0.38 -0.25,0 -0.5,0.18 -0.76,0.36 -0.4,0.28 -0.82,0.57 -1.42,0.55 -0.51,-0.02 -0.93,-0.22 -1.35,-0.42 -0.36,-0.17 -0.72,-0.34 -1.07,-0.32 -0.6,0.04 -0.86,0.3 -1.24,0.69l-0.2 0.21z"/>
 </g>
</svg>
