<?xml version="1.0" encoding="UTF-8"?>
<!DOCTYPE svg PUBLIC "-//W3C//DTD SVG 1.1//EN" "http://www.w3.org/Graphics/SVG/1.1/DTD/svg11.dtd">
<!-- Creator: CorelDRAW 2020 (64 Bit) -->
<svg xmlns="http://www.w3.org/2000/svg" xml:space="preserve" width="16.2535mm" height="23.3317mm" version="1.1" style="shape-rendering:geometricPrecision; text-rendering:geometricPrecision; image-rendering:optimizeQuality; fill-rule:evenodd; clip-rule:evenodd"
viewBox="0 0 22.62 32.47"
 xmlns:xlink="http://www.w3.org/1999/xlink"
 xmlns:xodm="http://www.corel.com/coreldraw/odm/2003">
 <defs>
  <style type="text/css">
   <![CDATA[
    .fil0 {fill:#373435}
   ]]>
  </style>
 </defs>
 <g id="Camada_x0020_1">
  <metadata id="CorelCorpID_0Corel-Layer"/>
  <path class="fil0" d="M11.31 20.76l-6.25 0c0,1.73 0.7,3.29 1.83,4.42 1.13,1.13 2.69,1.83 4.42,1.83 1.73,0 3.29,-0.7 4.42,-1.83 1.13,-1.13 1.83,-2.69 1.83,-4.42l-6.25 0zm0.51 -12.68c0.43,-0.2 0.74,-0.64 0.74,-1.14l0 -2.86c0,-0.51 -0.31,-0.95 -0.75,-1.15l-0 -1.99c0,-0.52 -0.23,-0.94 -0.52,-0.94 -0.28,0 -0.52,0.42 -0.52,0.94l0 1.99c-0.43,0.2 -0.73,0.64 -0.73,1.14l0 2.86c0,0.51 0.31,0.95 0.74,1.14l0 0.99 0 0.04c-0.76,0.12 -1.45,0.52 -1.97,1.14 -0.47,0.55 -0.79,1.28 -0.87,2.13l-7.56 6.61c-0.24,0.18 -0.39,0.46 -0.39,0.77 0,0.55 0.47,1 1.05,1l2.97 0c0,2.01 0.82,3.84 2.14,5.16 1.32,1.32 3.14,2.14 5.16,2.14 2.01,0 3.84,-0.82 5.16,-2.14 1.32,-1.32 2.14,-3.14 2.14,-5.16l2.97 0 0 -0c0.28,0 0.56,-0.11 0.77,-0.32 0.39,-0.4 0.36,-1.03 -0.06,-1.41l-7.61 -6.65c-0.08,-0.85 -0.4,-1.58 -0.87,-2.13 -0.52,-0.62 -1.21,-1.01 -1.97,-1.14l0 -0.04 -0 -0.99zm-2.63 21.98c0.05,-0.28 0.32,-0.46 0.6,-0.41 0.28,0.05 0.48,0.31 0.43,0.59l-0.31 1.82c-0.05,0.28 -0.32,0.46 -0.6,0.41 -0.28,-0.05 -0.48,-0.31 -0.43,-0.59l0.31 -1.82zm10.84 -5.44c-0.26,-0.1 -0.39,-0.4 -0.29,-0.67 0.1,-0.27 0.4,-0.41 0.66,-0.31l1.72 0.65c0.26,0.1 0.39,0.4 0.29,0.67 -0.1,0.27 -0.4,0.41 -0.66,0.31l-1.72 -0.65zm-13.83 4.2c0.14,-0.24 0.45,-0.33 0.7,-0.19 0.25,0.14 0.35,0.45 0.21,0.7l-0.9 1.61c-0.14,0.24 -0.45,0.33 -0.7,0.19 -0.25,-0.14 -0.35,-0.45 -0.21,-0.7l0.9 -1.61zm12.04 -1.5c-0.21,-0.18 -0.24,-0.5 -0.05,-0.72 0.19,-0.22 0.51,-0.25 0.72,-0.07l1.41 1.19c0.21,0.18 0.24,0.5 0.05,0.72 -0.19,0.22 -0.51,0.25 -0.72,0.07l-1.41 -1.19zm-14.44 -0.68c0.21,-0.18 0.54,-0.16 0.73,0.06 0.19,0.22 0.17,0.54 -0.04,0.73l-1.39 1.21c-0.21,0.18 -0.54,0.16 -0.73,-0.06 -0.19,-0.22 -0.17,-0.54 0.04,-0.73l1.39 -1.21zm11.84 2.62c-0.14,-0.24 -0.05,-0.56 0.2,-0.7 0.25,-0.15 0.57,-0.07 0.71,0.18l0.93 1.59c0.14,0.24 0.05,0.56 -0.2,0.7 -0.25,0.15 -0.57,0.07 -0.71,-0.18l-0.93 -1.59zm-13.38 -5.48c0.26,-0.1 0.56,0.03 0.66,0.3 0.11,0.27 -0.02,0.57 -0.28,0.67l-1.71 0.68c-0.26,0.1 -0.56,-0.03 -0.66,-0.3 -0.11,-0.27 0.02,-0.57 0.28,-0.67l1.71 -0.68zm10.28 6.44c-0.05,-0.27 0.14,-0.54 0.42,-0.59 0.28,-0.05 0.55,0.13 0.61,0.4l0.34 1.81c0.05,0.27 -0.14,0.54 -0.42,0.59 -0.28,0.05 -0.55,-0.13 -0.61,-0.4l-0.34 -1.81zm-5.78 -7.72c-0.1,-0.27 0.03,-0.57 0.3,-0.67 0.27,-0.1 0.57,0.03 0.67,0.3 0.22,0.58 0.57,1.09 1.02,1.49 0.45,0.4 0.99,0.7 1.59,0.85 0.28,0.07 0.45,0.36 0.37,0.63 -0.07,0.28 -0.36,0.45 -0.63,0.37 -0.76,-0.2 -1.45,-0.57 -2.02,-1.08 -0.57,-0.51 -1.02,-1.16 -1.3,-1.89z"/>
 </g>
</svg>
