<?xml version="1.0" encoding="UTF-8"?>
<!DOCTYPE svg PUBLIC "-//W3C//DTD SVG 1.1//EN" "http://www.w3.org/Graphics/SVG/1.1/DTD/svg11.dtd">
<!-- Creator: CorelDRAW 2020 (64 Bit) -->
<svg xmlns="http://www.w3.org/2000/svg" xml:space="preserve" width="21.5716mm" height="17.2322mm" version="1.1" style="shape-rendering:geometricPrecision; text-rendering:geometricPrecision; image-rendering:optimizeQuality; fill-rule:evenodd; clip-rule:evenodd"
viewBox="0 0 37.51 29.97"
 xmlns:xlink="http://www.w3.org/1999/xlink"
 xmlns:xodm="http://www.corel.com/coreldraw/odm/2003">
 <defs>
  <style type="text/css">
   <![CDATA[
    .fil0 {fill:#373435}
   ]]>
  </style>
 </defs>
 <g id="Camada_x0020_1">
  <metadata id="CorelCorpID_0Corel-Layer"/>
  <path class="fil0" d="M4.08 28.23l29.36 0c0.07,0 0.14,-0 0.2,-0.01 0.59,-0.05 1.13,-0.3 1.53,-0.68 0.37,-0.36 0.61,-0.83 0.61,-1.34 0,-0.05 -0,-0.1 -0.01,-0.14l-1.42 -17.01c-0.06,-0.66 -0.33,-1.26 -0.77,-1.69 -0.4,-0.39 -0.94,-0.63 -1.56,-0.63l-26.53 0c-0.62,0 -1.16,0.24 -1.56,0.63 -0.43,0.42 -0.71,1.02 -0.77,1.69l-1.42 17.01c-0,0.04 -0.01,0.09 -0.01,0.14 0,0.51 0.24,0.99 0.61,1.34 0.4,0.38 0.94,0.63 1.53,0.68 0.06,0.01 0.13,0.01 0.2,0.01zm23 -23.24c-0.13,-3.3 -1.08,-4.98 -4.56,-4.98l-3.76 0 -3.76 0c-3.48,0 -4.43,1.68 -4.56,4.98l-4.95 0c-1.1,0 -2.06,0.43 -2.77,1.13 -0.73,0.71 -1.2,1.7 -1.29,2.79l-1.42 17.01c-0.01,0.1 -0.01,0.2 -0.01,0.29 0,1.01 0.44,1.92 1.14,2.59 0.68,0.65 1.6,1.08 2.59,1.16 0.12,0.01 0.23,0.01 0.35,0.01l14.68 0 14.68 0c0.11,0 0.23,-0.01 0.35,-0.01 0.99,-0.08 1.91,-0.51 2.59,-1.16 0.7,-0.67 1.14,-1.58 1.14,-2.59 0,-0.09 -0,-0.19 -0.01,-0.29l-1.42 -17.01c-0.09,-1.08 -0.56,-2.07 -1.29,-2.79 -0.71,-0.7 -1.67,-1.13 -2.77,-1.13l-4.95 0zm-6.01 18.32l0 -3.57 3.57 0c0.75,0 1.36,-0.61 1.36,-1.36l0 -2.78c0,-0.75 -0.61,-1.36 -1.36,-1.36l-3.57 0 0 -3.57c0,-0.75 -0.61,-1.36 -1.36,-1.36l-2.78 0c-0.75,0 -1.36,0.61 -1.36,1.36l0 3.57 -3.57 0c-0.75,0 -1.36,0.61 -1.36,1.36l0 2.78c0,0.75 0.61,1.36 1.36,1.36l3.57 0 0 3.57c0,0.75 0.61,1.36 1.36,1.36l2.78 0c0.75,0 1.36,-0.61 1.36,-1.36z"/>
 </g>
</svg>
