<?xml version="1.0" encoding="UTF-8" standalone="no"?>
<svg
   xmlns:dc="http://purl.org/dc/elements/1.1/"
   xmlns:cc="http://creativecommons.org/ns#"
   xmlns:rdf="http://www.w3.org/1999/02/22-rdf-syntax-ns#"
   xmlns:svg="http://www.w3.org/2000/svg"
   xmlns="http://www.w3.org/2000/svg"
   xmlns:sodipodi="http://sodipodi.sourceforge.net/DTD/sodipodi-0.dtd"
   xmlns:inkscape="http://www.inkscape.org/namespaces/inkscape"
   xml:space="preserve"
   width="15.4371mm"
   height="17.6217mm"
   version="1.1"
   style="shape-rendering:geometricPrecision; text-rendering:geometricPrecision; image-rendering:optimizeQuality; fill-rule:evenodd; clip-rule:evenodd"
   viewBox="0 0 20.33 23.21"
   id="svg192"
   sodipodi:docname="tarefas.svg"
   inkscape:version="1.0.2 (e86c870879, 2021-01-15)"><metadata
   id="metadata196"><rdf:RDF><cc:Work
       rdf:about=""><dc:format>image/svg+xml</dc:format><dc:type
         rdf:resource="http://purl.org/dc/dcmitype/StillImage" /></cc:Work></rdf:RDF></metadata><sodipodi:namedview
   pagecolor="#ffffff"
   bordercolor="#666666"
   borderopacity="1"
   objecttolerance="10"
   gridtolerance="10"
   guidetolerance="10"
   inkscape:pageopacity="0"
   inkscape:pageshadow="2"
   inkscape:window-width="1858"
   inkscape:window-height="1016"
   id="namedview194"
   showgrid="false"
   inkscape:zoom="12.011705"
   inkscape:cx="29.172473"
   inkscape:cy="26.339867"
   inkscape:window-x="0"
   inkscape:window-y="0"
   inkscape:window-maximized="1"
   inkscape:current-layer="svg192"
   inkscape:document-rotation="0" />
 <defs
   id="defs184">
  <style
   type="text/css"
   id="style182">
   <![CDATA[
    .fil0 {fill:#373435}
    .fil1 {fill:#373435;fill-rule:nonzero}
   ]]>
  </style>
 </defs>
 <metadata
   id="CorelCorpID_0Corel-Layer" />
  
  <path
   class="fil1"
   d="M2.44 2.88l4.25 0c0.13,-0.71 0.48,-1.35 0.97,-1.84 0.64,-0.64 1.52,-1.04 2.5,-1.04 0.97,0 1.86,0.4 2.5,1.04 0.49,0.49 0.84,1.13 0.97,1.84l4.25 0c0.67,0 1.28,0.28 1.73,0.72l0.04 0.04c0.42,0.44 0.68,1.03 0.68,1.68l0 15.45c0,0.67 -0.28,1.28 -0.72,1.73 -0.44,0.44 -1.06,0.72 -1.73,0.72l-15.45 0c-0.67,0 -1.28,-0.28 -1.72,-0.72l-0 0c-0.44,-0.44 -0.72,-1.06 -0.72,-1.73l0 -15.45c0,-0.67 0.28,-1.28 0.72,-1.72l0 -0c0.44,-0.44 1.05,-0.72 1.72,-0.72zm3.5 2.68c-0.18,0 -0.33,0.15 -0.33,0.33 0,0.18 0.15,0.33 0.33,0.33l8.44 0c0.18,0 0.33,-0.15 0.33,-0.33 0,-0.18 -0.15,-0.33 -0.33,-0.33l-8.44 0zm3.57 -2.68l1.3 0c-0.17,-0.16 -0.4,-0.27 -0.65,-0.27 -0.25,0 -0.48,0.1 -0.65,0.27zm-5.7 8.05c-0.27,0 -0.49,-0.22 -0.49,-0.49 0,-0.27 0.22,-0.49 0.49,-0.49l12.7 0c0.27,0 0.49,0.22 0.49,0.49 0,0.27 -0.22,0.49 -0.49,0.49l-12.7 0zm0 8.13c-0.27,0 -0.49,-0.22 -0.49,-0.49 0,-0.27 0.22,-0.49 0.49,-0.49l12.7 0c0.27,0 0.49,0.22 0.49,0.49 0,0.27 -0.22,0.49 -0.49,0.49l-12.7 0zm0 -2.32c-0.27,0 -0.49,-0.22 -0.49,-0.49 0,-0.27 0.22,-0.49 0.49,-0.49l12.7 0c0.27,0 0.49,0.22 0.49,0.49 0,0.27 -0.22,0.49 -0.49,0.49l-12.7 0zm0 -3.48c-0.27,0 -0.49,-0.22 -0.49,-0.49 0,-0.27 0.22,-0.49 0.49,-0.49l12.7 0c0.27,0 0.49,0.22 0.49,0.49 0,0.27 -0.22,0.49 -0.49,0.49l-12.7 0zm-0.09 -9.06l-1.28 0c-0.31,0 -0.59,0.13 -0.8,0.33 -0.2,0.2 -0.33,0.49 -0.33,0.8l0 15.44c0,0.31 0.13,0.59 0.33,0.8l-0 0c0.2,0.2 0.49,0.33 0.8,0.33l15.44 0c0.31,0 0.59,-0.13 0.8,-0.33 0.2,-0.2 0.33,-0.49 0.33,-0.8l0 -15.44c0,-0.3 -0.12,-0.57 -0.3,-0.77l-0.03 -0.03c-0.2,-0.2 -0.49,-0.33 -0.8,-0.33l-1.28 0 0 1.28c0,0.96 -0.78,1.74 -1.74,1.74l-9.4 0c-0.96,0 -1.74,-0.78 -1.74,-1.74l0 -1.28zm3.64 -1.32l1.36 0c0.08,-0.17 0.19,-0.33 0.32,-0.46l0 -0c0.29,-0.29 0.68,-0.46 1.12,-0.46 0.44,0 0.83,0.18 1.12,0.46l0 0c0.13,0.13 0.24,0.29 0.32,0.46l1.36 0c-0.12,-0.53 -0.39,-1 -0.77,-1.37 -0.52,-0.52 -1.24,-0.84 -2.03,-0.84 -0.79,0 -1.51,0.32 -2.03,0.84 -0.37,0.37 -0.64,0.85 -0.77,1.37z"
   id="path189" />
 </svg>
